<?xml version="1.0" standalone="no"?><!DOCTYPE svg PUBLIC "-//W3C//DTD SVG 1.1//EN" "http://www.w3.org/Graphics/SVG/1.1/DTD/svg11.dtd"><svg t="1654137091790" class="icon" viewBox="0 0 1024 1024" version="1.1" xmlns="http://www.w3.org/2000/svg" p-id="3749" xmlns:xlink="http://www.w3.org/1999/xlink" width="200" height="200"><defs><style type="text/css">@font-face { font-family: feedback-iconfont; src: url("//at.alicdn.com/t/font_1031158_u69w8yhxdu.woff2?t=1630033759944") format("woff2"), url("//at.alicdn.com/t/font_1031158_u69w8yhxdu.woff?t=1630033759944") format("woff"), url("//at.alicdn.com/t/font_1031158_u69w8yhxdu.ttf?t=1630033759944") format("truetype"); }
</style></defs><path d="M512 85.333333C276.48 85.333333 85.333333 276.48 85.333333 512S276.48 938.666667 512 938.666667 938.666667 747.52 938.666667 512 747.52 85.333333 512 85.333333zM483.555556 307.2c0-15.928889 12.515556-28.444444 28.444444-28.444444s28.444444 12.515556 28.444444 28.444444v238.933333c0 15.928889-12.515556 28.444444-28.444444 28.444445s-28.444444-12.515556-28.444444-28.444445V307.2zM512 722.488889c-21.617778 0-39.822222-18.204444-39.822222-39.822222s18.204444-39.822222 39.822222-39.822223 39.822222 18.204444 39.822222 39.822223-18.204444 39.822222-39.822222 39.822222z" p-id="3750" fill="#cdcdcd"></path></svg>